HIERARCHY
ROOT hip
{
  OFFSET 0.0 0.0 0.0
  CHANNELS 6 Xposition Yposition Zposition Zrotation Yrotation Xrotation
  JOINT torso
  {
    OFFSET 0.0 0.0 0.0
    CHANNELS 3 Zrotation Xrotation Yrotation
    JOINT neck
    {
      OFFSET -31.42098999999993 328.8025209999999 74.3554680000002
      CHANNELS 3 Zrotation Xrotation Yrotation
      JOINT head
      {
        OFFSET 3.3519900000001144 303.81732099999994 206.53942900000015
        CHANNELS 3 Zrotation Xrotation Yrotation
        End Site
        {
          OFFSET 0.0 0.0 0.0
        }
      }
    }
    JOINT left_collar
    {
      OFFSET -31.42098999999993 328.8025209999999 74.3554680000002
      CHANNELS 3 Zrotation Xrotation Yrotation
      JOINT left_upper_arm
      {
        OFFSET -124.490479 -8.162841999999841 8.226441000000023
        CHANNELS 3 Zrotation Xrotation Yrotation
        JOINT left_forearm
        {
          OFFSET -253.595764 -1.5758060000000569 105.0729980000001
          CHANNELS 3 Zrotation Xrotation Yrotation
          JOINT left_hand
          {
            OFFSET -269.48803699999996 0.1478270000000066 -55.346191999999974
            CHANNELS 3 Zrotation Xrotation Yrotation
            End Site
            {
              OFFSET 0.0 0.0 0.0
            }
          }
        }
      }
    }
    JOINT right_collar
    {
      OFFSET -31.42098999999993 328.8025209999999 74.3554680000002
      CHANNELS 3 Zrotation Xrotation Yrotation
      JOINT right_upper_arm
      {
        OFFSET 162.02484099999998 0.46441600000002836 2.2303470000001653
        CHANNELS 3 Zrotation Xrotation Yrotation
        JOINT right_forearm
        {
          OFFSET 240.01246700000004 -25.835875999999985 121.34179699999959
          CHANNELS 3 Zrotation Xrotation Yrotation
          JOINT right_hand
          {
            OFFSET 252.48539699999992 18.910399999999868 -67.53466800000001
            CHANNELS 3 Zrotation Xrotation Yrotation
            End Site
            {
              OFFSET 0.0 0.0 0.0
            }
          }
        }
      }
    }
  }
}
MOTION
Frames: 6
Frame Time: 0.01
-266.8709719999997 211.83395399999975 1277.943604 -0.28153082948595104 0.16264460988401827 -6.9643416828825195 0.1671879113064031 -0.98930074642258 -0.13355096550681347 -2.104088700405714 -3.2220137821233177 1.4968886566378126 0.0 0.0 0.0 6.053130110207815 -0.4838033958869694 7.457883140006866 43.07914947633104 19.159563302739425 -1.1729599287884938 32.80188324737803 -2.049259830136472 -16.28545496185409 0.0 0.0 0.0 2.224493633822092 -0.1023473967535604 3.21609864535884 -40.00499838887272 20.79599755231083 -1.5687359251058026 -51.79885399178396 -7.344194299057069 16.84957637191598 0.0 0.0 0.0
-266.8246149999997 211.81329299999973 1277.927856 -0.27163218503509073 0.10329353945171622 -6.965278211986465 0.15538190366524923 -0.9315812505429766 -0.1252129351966987 -2.1009994810374737 -3.2468730071328804 1.4952419188715655 0.0 0.0 0.0 6.039547357465567 -0.4827887663776669 7.449244451118305 43.065064096996274 19.153058093981507 -1.1735610627786772 32.82493604623052 -2.048812308167706 -16.292108554604994 0.0 0.0 0.0 2.290857652251616 -0.10537829031216352 3.227095255569853 -40.11149003038084 20.79773550475608 -1.674792097813177 -51.79165568272312 -7.348952259828511 16.83548564236415 0.0 0.0 0.0
-266.7327579999997 211.78228799999974 1277.943237 -0.30253272278241505 0.21265756327284688 -6.983420583173719 0.18721584828569632 -1.0401654494825803 -0.1431677956012101 -2.116786176275264 -3.277126706768304 1.5068272997633176 0.0 0.0 0.0 6.039046757276134 -0.48424021103899395 7.461496212859921 43.052914524652095 19.14165529048395 -1.1615059875520428 32.82202435067447 -2.0465460339258637 -16.29914441374424 0.0 0.0 0.0 2.426336946099163 -0.1136360624811763 3.333839201513252 -40.27708941863322 20.804025622595287 -1.8327361586800797 -51.83831286941099 -7.347618746845367 16.853888721851433 0.0 0.0 0.0
-266.6859739999997 211.78584299999974 1277.923828 -0.41641733105412 0.2941790034190504 -7.053727679170424 0.28415643967988385 -1.1182053444352769 -0.17355147890108572 -2.14998152622929 -3.3017632095457663 1.5304094324941617 0.0 0.0 0.0 6.07284710945045 -0.49767078387483016 7.5747774429152335 43.018123072790274 19.139858188211555 -1.1939801492954116 32.830944935730614 -2.046897948404544 -16.29993496063151 0.0 0.0 0.0 2.420430940601109 -0.11558626780381819 3.4255134336932445 -40.24175836644096 20.780435243341397 -1.8383940465129103 -51.84486219719669 -7.340833320633194 16.872755629821476 0.0 0.0 0.0
-266.6352539999997 211.76425199999974 1277.891602 -0.4013109838357386 0.2622512751755776 -7.10007336958655 0.2622750195998741 -1.0804803940203693 -0.16472456492631812 -2.1613194216015366 -3.33418027815023 1.538954901486127 0.0 0.0 0.0 6.060187394901662 -0.5017674911491637 7.609355120475731 43.04243617960868 19.146699140338825 -1.1834091065151169 32.824350073478854 -2.051505607664675 -16.28284689989408 0.0 0.0 0.0 2.438278643397428 -0.11715941907873242 3.458289643051206 -40.26585336969309 20.77832087505889 -1.8666713349911908 -51.85659153534126 -7.342279021713398 16.87297540820255 0.0 0.0 0.0
-266.6094669999997 211.73699999999974 1277.882202 -0.1968703822511068 0.17195931324896324 -7.014919396365904 0.059706554020732897 -0.9824253490628088 -0.10769519910485868 -2.090438353173108 -3.3840659612434423 1.4906529537707793 0.0 0.0 0.0 5.952548996668598 -0.4801898959238122 7.42663622401944 43.12864506157365 19.144324052095048 -1.088264367812162 32.85242870295742 -2.058853611342169 -16.26421119437588 0.0 0.0 0.0 2.5001936109054066 -0.11715156926671924 3.3478423236458212 -40.31380563537587 20.773038712500476 -1.92478468521019 -51.89941623891494 -7.344008749012266 16.88252677097364 0.0 0.0 0.0
